<svg id="svg" xmlns="http://www.w3.org/2000/svg" xmlns:xlink="http://www.w3.org/1999/xlink" width="400" height="296.8595041322314" viewBox="0, 0, 400,296.8595041322314"><g id="svgg"><path id="path0" d="M229.318 0.921 C 215.204 5.963,211.246 18.040,214.885 44.959 C 218.289 70.139,216.359 77.857,206.725 77.592 C 199.106 77.382,193.253 73.730,181.818 62.051 C 171.852 51.872,169.051 50.260,161.322 50.262 C 144.186 50.267,133.341 60.737,133.259 77.355 C 133.207 87.814,135.576 92.176,149.048 106.432 C 160.658 118.717,162.162 125.131,155.039 131.991 C 148.441 138.346,141.620 138.843,102.605 135.814 C 80.210 134.075,71.679 135.247,62.945 141.262 C 52.412 148.517,51.234 161.355,60.336 169.710 C 65.745 174.677,69.519 174.829,79.801 170.497 C 85.945 167.908,89.930 167.223,89.903 168.760 C 89.869 170.676,87.194 175.187,83.467 179.613 C 77.273 186.970,76.144 194.899,80.285 201.965 C 84.742 209.571,90.235 210.905,117.155 210.921 C 139.207 210.933,143.601 211.441,149.519 214.662 C 154.475 217.360,154.471 217.795,149.266 239.008 C 141.509 270.621,148.917 286.151,171.120 284.819 C 182.490 284.137,189.179 277.348,198.347 257.190 C 207.116 237.909,213.453 231.405,223.471 231.405 C 234.639 231.405,239.681 237.553,247.187 260.327 C 252.346 275.977,254.760 280.540,261.520 287.418 C 274.007 300.123,287.983 300.124,300.439 287.422 C 313.049 274.563,313.235 264.936,301.332 241.349 C 291.514 221.894,290.925 214.199,298.601 205.661 C 304.805 198.760,313.856 197.654,339.504 200.662 C 365.391 203.697,377.080 202.482,388.601 195.558 C 404.436 186.042,403.893 166.304,387.305 148.450 C 379.393 139.932,373.967 138.420,348.099 137.521 C 324.210 136.690,318.577 135.339,312.403 128.957 L 309.764 126.230 311.901 122.123 C 313.076 119.864,316.718 115.041,319.993 111.405 C 336.896 92.643,339.605 86.638,336.292 75.275 C 331.612 59.224,319.121 57.411,299.865 69.987 C 291.065 75.734,286.837 77.432,280.280 77.852 L 275.272 78.173 273.839 74.843 C 271.154 68.602,270.404 63.480,269.417 44.628 C 267.744 12.696,264.880 6.210,250.439 1.648 C 244.451 -0.243,233.622 -0.616,229.318 0.921 M365.289 35.278 C 349.013 39.454,337.277 54.629,342.254 65.065 C 343.497 67.671,344.856 68.367,351.405 69.746 C 368.682 73.385,381.884 65.570,382.666 51.240 C 383.374 38.266,376.882 32.303,365.289 35.278 M15.822 141.983 C 9.725 145.072,7.341 151.735,10.292 157.440 C 14.376 165.339,32.206 162.173,37.044 152.690 C 41.554 143.849,26.816 136.414,15.822 141.983 M26.777 182.512 C 2.208 186.361,-7.937 204.592,5.813 220.188 C 20.230 236.540,54.555 222.893,61.384 198.093 C 64.011 188.553,44.446 179.744,26.777 182.512 " stroke="none" fill="#ffffff" fill-rule="evenodd"></path></g></svg>